<?xml version="1.0" encoding="utf-8"?><!-- Uploaded to: SVG Repo, www.svgrepo.com, Generator: SVG Repo Mixer Tools -->
<svg width="800px" height="800px" viewBox="0 -0.5 25 25" fill="none" xmlns="http://www.w3.org/2000/svg">
<path fill-rule="evenodd" clip-rule="evenodd" d="M15.125 12C15.125 13.4497 13.9497 14.625 12.5 14.625C11.0503 14.625 9.875 13.4497 9.875 12C9.875 10.5503 11.0503 9.375 12.5 9.375C13.9497 9.375 15.125 10.5503 15.125 12Z" stroke="#151515" stroke-width="1.5" stroke-linecap="round" stroke-linejoin="round"/>
<path d="M19.5 12.75C19.9142 12.75 20.25 12.4142 20.25 12C20.25 11.5858 19.9142 11.25 19.5 11.25V12.75ZM17.75 11.25C17.3358 11.25 17 11.5858 17 12C17 12.4142 17.3358 12.75 17.75 12.75V11.25ZM7.25 12.75C7.66421 12.75 8 12.4142 8 12C8 11.5858 7.66421 11.25 7.25 11.25V12.75ZM5.5 11.25C5.08579 11.25 4.75 11.5858 4.75 12C4.75 12.4142 5.08579 12.75 5.5 12.75V11.25ZM13.25 5C13.25 4.58579 12.9142 4.25 12.5 4.25C12.0858 4.25 11.75 4.58579 11.75 5H13.25ZM11.75 6.75C11.75 7.16421 12.0858 7.5 12.5 7.5C12.9142 7.5 13.25 7.16421 13.25 6.75H11.75ZM13.25 17.25C13.25 16.8358 12.9142 16.5 12.5 16.5C12.0858 16.5 11.75 16.8358 11.75 17.25H13.25ZM11.75 19C11.75 19.4142 12.0858 19.75 12.5 19.75C12.9142 19.75 13.25 19.4142 13.25 19H11.75ZM17.9803 7.58033C18.2732 7.28744 18.2732 6.81256 17.9803 6.51967C17.6874 6.22678 17.2126 6.22678 16.9197 6.51967L17.9803 7.58033ZM15.6817 7.75767C15.3888 8.05056 15.3888 8.52544 15.6817 8.81833C15.9746 9.11122 16.4494 9.11122 16.7423 8.81833L15.6817 7.75767ZM9.31833 16.2423C9.61122 15.9494 9.61122 15.4746 9.31833 15.1817C9.02544 14.8888 8.55056 14.8888 8.25767 15.1817L9.31833 16.2423ZM7.01967 16.4197C6.72678 16.7126 6.72678 17.1874 7.01967 17.4803C7.31256 17.7732 7.78744 17.7732 8.08033 17.4803L7.01967 16.4197ZM8.08033 6.51967C7.78744 6.22678 7.31256 6.22678 7.01967 6.51967C6.72678 6.81256 6.72678 7.28744 7.01967 7.58033L8.08033 6.51967ZM8.25767 8.81833C8.55056 9.11122 9.02544 9.11122 9.31833 8.81833C9.61122 8.52544 9.61122 8.05056 9.31833 7.75767L8.25767 8.81833ZM16.7433 15.1827C16.4504 14.8898 15.9756 14.8898 15.6827 15.1827C15.3898 15.4756 15.3898 15.9504 15.6827 16.2433L16.7433 15.1827ZM16.9197 17.4803C17.2126 17.7732 17.6874 17.7732 17.9803 17.4803C18.2732 17.1874 18.2732 16.7126 17.9803 16.4197L16.9197 17.4803ZM19.5 11.25H17.75V12.75H19.5V11.25ZM7.25 11.25H5.5V12.75H7.25V11.25ZM11.75 5V6.75H13.25V5H11.75ZM11.75 17.25V19H13.25V17.25H11.75ZM16.9197 6.51967L15.6817 7.75767L16.7423 8.81833L17.9803 7.58033L16.9197 6.51967ZM8.25767 15.1817L7.01967 16.4197L8.08033 17.4803L9.31833 16.2423L8.25767 15.1817ZM7.01967 7.58033L8.25767 8.81833L9.31833 7.75767L8.08033 6.51967L7.01967 7.58033ZM15.6827 16.2433L16.9197 17.4803L17.9803 16.4197L16.7433 15.1827L15.6827 16.2433Z" fill="#151515"/>
</svg>
